<svg width="297" height="902" viewBox="0 0 297 902" fill="none" xmlns="http://www.w3.org/2000/svg">
<path fill-rule="evenodd" clip-rule="evenodd" d="M209.071 233.236C205.094 229.411 204.972 223.087 208.797 219.11L231.814 195.181L202.246 167.312C198.231 163.527 198.044 157.204 201.828 153.189C205.613 149.174 211.936 148.987 215.951 152.771L260.209 194.485L223.197 232.962C219.372 236.939 213.048 237.062 209.071 233.236Z" fill="#121213"/>
<path fill-rule="evenodd" clip-rule="evenodd" d="M-409.135 708.014C-567.929 740.325 -705.49 693.072 -786.076 636.869L-774.642 620.478C-698.004 673.928 -565.942 719.528 -413.117 688.433C-260.57 657.393 -85.86 549.618 75.6496 293.664C111.274 237.208 166.902 194.391 232.888 180.39L237.034 199.938C176.988 212.678 125.68 251.823 92.5502 304.326C-71.1539 563.758 -250.061 675.647 -409.135 708.014Z" fill="#121213"/>
</svg>
