<svg width="117" height="117" viewBox="0 0 117 117" fill="none" xmlns="http://www.w3.org/2000/svg">
<path fill-rule="evenodd" clip-rule="evenodd" d="M66 6C62.6863 9.31371 62.6863 14.6863 66 18C62.6863 14.6863 57.3137 14.6863 54 18C50.6863 21.3137 50.6863 26.6863 54 30C50.6863 26.6863 45.3137 26.6863 42 30C38.6863 33.3137 38.6863 38.6863 42 42C38.6863 38.6863 33.3137 38.6863 30 42C26.6863 45.3137 26.6863 50.6863 30 54C26.6863 50.6863 21.3137 50.6863 18 54C14.6863 57.3137 14.6863 62.6863 18 66C14.6863 62.6863 9.3137 62.6863 6 66C2.68631 69.3137 2.6863 74.6863 6 78L38.3478 110.348C41.6615 113.662 47.0341 113.662 50.3478 110.348C53.6615 107.034 53.6615 101.662 50.3478 98.3478C53.6615 101.662 59.0341 101.662 62.3478 98.3478C65.6615 95.0341 65.6615 89.6615 62.3478 86.3478C65.6615 89.6615 71.0341 89.6615 74.3478 86.3478C77.6615 83.0341 77.6615 77.6615 74.3478 74.3478C77.6615 77.6615 83.0341 77.6615 86.3478 74.3478C89.6615 71.0341 89.6615 65.6615 86.3478 62.3478C89.6615 65.6615 95.0341 65.6615 98.3478 62.3478C101.662 59.0341 101.662 53.6615 98.3478 50.3478C101.662 53.6615 107.034 53.6615 110.348 50.3478C113.662 47.0341 113.662 41.6615 110.348 38.3478L78 6C74.6863 2.68629 69.3137 2.68629 66 6Z" fill="#3746FF"/>
</svg>
