<svg width="131" height="132" viewBox="0 0 131 132" fill="none" xmlns="http://www.w3.org/2000/svg">
<path fill-rule="evenodd" clip-rule="evenodd" d="M123.413 58.4668C136.189 50.1928 129.021 30.3407 113.899 32.0776C104.716 33.1323 96.9312 25.3621 97.9853 16.1792C99.7243 1.03046 79.6885 -5.90081 71.5211 6.97556C66.5737 14.7755 55.631 15.9893 49.1172 9.44053C38.3564 -1.37827 20.3056 9.64296 25.0917 24.1321L25.3899 25.035C28.289 33.8113 22.3139 43.0698 13.144 44.2285C-2.06706 46.1506 -4.78134 67.3337 9.66344 72.4737C18.3602 75.5684 21.9228 86.0339 17.0645 93.883C9.06161 106.813 23.7759 122.11 36.6305 113.987C44.4541 109.043 54.8435 112.704 57.8446 121.459C62.7733 135.836 83.7484 133.691 85.6485 118.612L85.7626 117.707C86.9166 108.548 96.2121 102.77 104.943 105.764C119.498 110.756 130.782 92.612 120.056 81.5795C113.618 74.9575 114.793 64.049 122.545 59.0288L123.413 58.4668Z" fill="white"/>
</svg>
