<svg width="15" height="20" viewBox="0 0 15 20" fill="none" xmlns="http://www.w3.org/2000/svg">
<path d="M13.75 18.4186C13.75 16.6742 13.0915 15.0012 11.9194 13.7677C10.7473 12.5342 9.1576 11.8412 7.5 11.8412C5.8424 11.8412 4.25269 12.5342 3.08058 13.7677C1.90848 15.0012 1.25 16.6742 1.25 18.4186V19.7328H0V18.4186C0 15.0826 1.96875 12.2359 4.7475 11.0822C3.88378 10.5722 3.16332 9.83119 2.65898 8.93418C2.15463 8.03717 1.88427 7.01592 1.87523 5.97368C1.8662 4.93145 2.1188 3.90518 2.60751 2.99863C3.09622 2.09208 3.8037 1.33739 4.65843 0.810868C5.51317 0.284343 6.48485 0.00464674 7.47523 5.74016e-05C8.46562 -0.00453194 9.4396 0.266148 10.2987 0.784731C11.1578 1.30331 11.8716 2.05142 12.3679 2.9534C12.8641 3.85539 13.1253 4.87927 13.125 5.92155C13.1248 6.97286 12.8585 8.00513 12.3534 8.91216C11.8483 9.81919 11.1227 10.5682 10.2513 11.0822C11.6512 11.662 12.8528 12.6718 13.6998 13.9803C14.5468 15.2888 14.9998 16.8354 15 18.4186V19.7328H13.75V18.4186ZM11.875 5.92155C11.875 5.31692 11.7618 4.71821 11.542 4.15961C11.3221 3.601 10.9998 3.09344 10.5936 2.6659C10.1873 2.23837 9.70504 1.89922 9.17424 1.66784C8.64344 1.43646 8.07453 1.31737 7.5 1.31737C6.92547 1.31737 6.35656 1.43646 5.82576 1.66784C5.29496 1.89922 4.81266 2.23837 4.40641 2.6659C4.00015 3.09344 3.67789 3.601 3.45803 4.15961C3.23816 4.71821 3.125 5.31692 3.125 5.92155C3.125 7.14266 3.58594 8.31375 4.40641 9.1772C5.22688 10.0407 6.33968 10.5257 7.5 10.5257C8.66032 10.5257 9.77312 10.0407 10.5936 9.1772C11.4141 8.31375 11.875 7.14266 11.875 5.92155Z" fill="black"/>
</svg>
