<svg width="20" height="19" viewBox="0 0 20 19" fill="none" xmlns="http://www.w3.org/2000/svg">
<path d="M5.06209 6.38906V18.1045H1.16099V6.38906H5.06209ZM5.31026 2.77094C5.32237 3.89375 4.47118 4.79261 3.11154 4.79261H3.08809C1.77612 4.79261 0.936279 3.89375 0.936279 2.77094C0.936279 1.62391 1.81092 0.749268 3.135 0.749268C4.47118 0.749268 5.29815 1.62391 5.31026 2.77094ZM19.095 11.3895V18.1045H15.2052V11.8389C15.2052 10.2667 14.6378 9.1908 13.2312 9.1908C12.1553 9.1908 11.5168 9.91185 11.233 10.6094C11.1385 10.8697 11.1029 11.2125 11.1029 11.5673V18.1052H7.21314C7.26081 7.48918 7.21314 6.38982 7.21314 6.38982H11.1029V8.0922H11.0794C11.5879 7.28867 12.5102 6.11819 14.6143 6.11819C17.18 6.11819 19.095 7.79712 19.095 11.391V11.3895Z" fill="white"/>
</svg>
