<svg width="19" height="19" viewBox="0 0 19 19" fill="none" xmlns="http://www.w3.org/2000/svg">
<path d="M12.1051 9.59257C12.1051 7.92575 10.7454 6.56611 9.07863 6.56611C7.41181 6.56611 6.05217 7.92575 6.05217 9.59257C6.05217 11.2594 7.41181 12.619 9.07863 12.619C10.7454 12.619 12.1051 11.2594 12.1051 9.59257ZM13.7363 9.59257C13.7363 12.1696 11.6557 14.2503 9.07863 14.2503C6.5016 14.2503 4.42092 12.1696 4.42092 9.59257C4.42092 7.01554 6.5016 4.93485 9.07863 4.93485C11.6557 4.93485 13.7363 7.01554 13.7363 9.59257ZM15.0135 4.7457C15.0135 5.34872 14.5285 5.83296 13.9262 5.83296C13.324 5.83296 12.839 5.34797 12.839 4.7457C12.839 4.14344 13.324 3.65845 13.9262 3.65845C14.5285 3.65845 15.0135 4.14344 15.0135 4.7457ZM9.07863 2.14447C7.75455 2.14447 4.91725 2.03778 3.72332 2.51067C3.30945 2.67636 3.00227 2.87687 2.68297 3.19616C2.36368 3.51545 2.16243 3.82263 1.99748 4.2365C1.5246 5.43044 1.63128 8.26774 1.63128 9.59181C1.63128 10.9159 1.5246 13.7532 1.99748 14.9471C2.16318 15.361 2.36368 15.6682 2.68297 15.9875C3.00227 16.3068 3.30945 16.508 3.72332 16.673C4.91725 17.1458 7.75455 17.0392 9.07863 17.0392C10.4027 17.0392 13.24 17.1458 14.4339 16.673C14.8478 16.5073 15.155 16.3068 15.4743 15.9875C15.7936 15.6682 15.9948 15.361 16.1598 14.9471C16.6327 13.7532 16.526 10.9159 16.526 9.59181C16.526 8.26774 16.6327 5.43044 16.1598 4.2365C15.9941 3.82263 15.7936 3.51545 15.4743 3.19616C15.155 2.87687 14.8478 2.67561 14.4339 2.51067C13.24 2.03778 10.4027 2.14447 9.07863 2.14447ZM18.158 9.59257C18.158 10.8455 18.1701 12.0871 18.099 13.3401C18.0278 14.7943 17.6972 16.0828 16.6334 17.1466C15.5696 18.2104 14.2811 18.5418 12.8269 18.6122C11.5739 18.6833 10.3323 18.6712 9.07938 18.6712C7.82643 18.6712 6.58483 18.6833 5.33188 18.6122C3.87767 18.541 2.58915 18.2104 1.52536 17.1466C0.461558 16.0828 0.130162 14.7943 0.0597967 13.3401C-0.011325 12.0871 0.000780823 10.8455 0.000780823 9.59257C0.000780823 8.33961 -0.011325 7.09801 0.0597967 5.84506C0.130918 4.39085 0.461558 3.10234 1.52536 2.03854C2.58915 0.974742 3.87767 0.643345 5.33188 0.57298C6.58483 0.501859 7.82643 0.513964 9.07938 0.513964C10.3323 0.513964 11.5739 0.501859 12.8269 0.57298C14.2811 0.644102 15.5696 0.974742 16.6334 2.03854C17.6972 3.10234 18.0286 4.39085 18.099 5.84506C18.1701 7.09801 18.158 8.33961 18.158 9.59257Z" fill="white"/>
</svg>
