<svg width="117" height="19" viewBox="0 0 117 19" fill="none" xmlns="http://www.w3.org/2000/svg">
<g clip-path="url(#clip0)">
<path d="M24.5071 7.3188L25.53 5.25H18.9682L17.2489 13.6928H23.284L24.3047 11.6241H20.1413L20.3916 10.4005H22.9836L24.0065 8.33393H20.8203L21.027 7.3188H24.5071Z" fill="black"/>
<path d="M40.0464 0.330811H33.4781L24.4353 18.6123H29.8959L31.5629 14.912H36.3357L36.6426 18.6077H41.8658L40.0464 0.330811ZM33.3214 10.7541C34.3573 8.50628 35.2061 6.62103 35.8677 4.99636C35.9374 6.58251 36.0702 8.6513 36.2421 10.7541H33.3214Z" fill="black"/>
<path d="M57.109 0.330811H42.5382L41.6742 4.48426H46.3686L43.5089 18.6123H48.7278L51.5875 4.48426H56.2449L57.109 0.330811Z" fill="black"/>
<path d="M70.7831 2.29765C69.4773 0.79534 67.4989 0 65.0766 0C58.5868 0 55.1895 5.74866 55.1895 11.427C55.1895 16.1334 57.9447 18.9432 62.5608 18.9432C65.8254 18.9432 68.4892 17.7127 70.2651 15.3879C71.7689 13.4188 72.596 10.7156 72.596 7.7744C72.596 5.55152 71.967 3.65721 70.7831 2.29765ZM63.0853 14.8667C60.9938 14.8667 60.5564 13.054 60.5564 11.5177C60.5682 9.82755 60.9359 8.16071 61.6337 6.63464C62.1973 5.46768 63.2137 4.0764 64.8438 4.0764C66.4738 4.0764 67.3161 5.20936 67.3161 7.4753C67.3161 10.3304 66.167 14.8667 63.0853 14.8667Z" fill="black"/>
<path d="M94.3707 0.330663H86.8681L86.8115 0.471152C86.4398 1.36393 86.0567 2.2703 85.678 3.16987C84.5006 5.97055 83.3798 8.63756 82.5745 10.7789C82.6856 7.93965 82.7595 3.47124 82.7377 0.561788V0.335195H75.4078L71.6841 18.6121H76.422L77.6124 12.7548C78.0477 10.6519 78.4721 8.32939 78.7942 6.41015C78.7463 8.66248 78.7332 11.2185 78.7224 13.7155C78.7224 15.3175 78.7072 16.9014 78.6897 18.3742V18.6008H82.9271L82.9858 18.4603C84.9446 13.8288 86.7336 9.30151 87.9459 6.19035C87.5107 8.11639 87.012 10.4957 86.6051 12.5078L85.3712 18.6008H90.6507L92.1749 11.0984H88.4051L94.3707 0.319336V0.330663Z" fill="black"/>
<path d="M95.4151 0.330811L93.8875 7.8333H97.8286L91.6934 18.6123H97.2195L100.941 0.330811H95.4151Z" fill="black"/>
<path d="M109.524 4.06727C110.946 4.06727 111.586 4.80823 111.592 6.47368V6.70028H116.868V6.47368C116.868 4.62242 116.321 3.0544 115.257 1.94183C114.047 0.672911 112.195 0.00219727 109.901 0.00219727C106.711 0.00219727 104.092 1.36176 102.329 3.91772C100.928 5.95705 100.123 8.6875 100.123 11.4134C100.123 16.1991 102.695 18.9453 107.18 18.9453C111.631 18.9453 114.607 16.7202 115.781 12.5078L115.867 12.2087H110.565L110.508 12.356C110.007 13.6522 109.318 14.8486 107.679 14.8486C106.264 14.8486 105.576 13.8039 105.576 11.6559C105.572 8.4745 106.945 4.06727 109.524 4.06727Z" fill="black"/>
<path d="M3.30713 7.3188H5.42691L4.13633 13.6928H6.68049L7.97107 7.3188H10.0712L10.5022 5.25H3.73805L3.30713 7.3188Z" fill="black"/>
<path d="M15.6166 5.25L15.0051 8.24556H13.1138L13.7275 5.25H11.179L9.45972 13.6928H12.0082L12.6894 10.3143H14.5807L13.8995 13.6928H16.4502L18.1695 5.25H15.6166Z" fill="black"/>
<path d="M4.7632 0.330811L4.33228 2.40867H28.8642L29.8915 0.330811H4.7632Z" fill="black"/>
<path d="M1.37674 16.5344L0.947998 18.6123H20.8486L21.8759 16.5344H1.37674Z" fill="black"/>
<path d="M24.5071 7.32344L25.53 5.25464H18.9682L17.2489 13.6975H23.284L24.3047 11.6287H20.1413L20.3916 10.4051H22.9836L24.0065 8.33857H20.8203L21.027 7.32344H24.5071Z" fill="black"/>
<path d="M40.0464 0.335205H33.4781L24.4353 18.6167H29.8959L31.5629 14.9119H36.3357L36.6426 18.6076H41.8658L40.0464 0.335205ZM33.3214 10.7585C34.3573 8.51067 35.2061 6.62542 35.8677 5.00075C35.9374 6.5869 36.0702 8.65569 36.2421 10.7585H33.3214Z" fill="black"/>
<path d="M57.109 0.335205H42.5382L41.6742 4.48865H46.3686L43.5089 18.6167H48.7278L51.5875 4.48865H56.2449L57.109 0.335205Z" fill="black"/>
<path d="M70.7831 2.30205C69.4773 0.799735 67.4989 0.00439453 65.0766 0.00439453C58.5868 0.00439453 55.1895 5.75305 55.1895 11.4314C55.1895 16.1378 57.9447 18.9475 62.5608 18.9475C65.8254 18.9475 68.4892 17.7171 70.2651 15.3923C71.7689 13.4232 72.596 10.72 72.596 7.77879C72.596 5.55592 71.967 3.6616 70.7831 2.30205ZM63.0853 14.8712C60.9938 14.8712 60.5564 13.0584 60.5564 11.5221C60.5682 9.83196 60.9359 8.16511 61.6337 6.63903C62.1973 5.47208 63.2137 4.0808 64.8438 4.0808C66.4738 4.0808 67.3161 5.21376 67.3161 7.47969C67.3161 10.3325 66.167 14.8712 63.0853 14.8712Z" fill="black"/>
<path d="M94.3707 0.335304H86.8681L86.8115 0.475791C86.4398 1.36857 86.0567 2.27494 85.678 3.17452C84.5006 5.9752 83.3798 8.6422 82.5745 10.7835C82.6856 7.94203 82.7595 3.47588 82.7377 0.56643V0.339837H75.4078L71.6841 18.6168H76.422L77.6124 12.7594C78.0477 10.6566 78.4721 8.33177 78.7942 6.41479C78.7463 8.66486 78.7332 11.2231 78.7224 13.7201C78.7224 15.3221 78.7072 16.906 78.6897 18.3789V18.6055H82.9271L82.9858 18.465C84.9446 13.8334 86.7336 9.30608 87.9459 6.19499C87.5107 8.12103 87.012 10.4889 86.6051 12.5101L85.3712 18.6055H90.6507L92.1749 11.103H88.4051L94.3707 0.323975V0.335304Z" fill="black"/>
<path d="M95.4151 0.335205L93.8875 7.83769H97.8286L91.6934 18.6167H97.2195L100.941 0.335205H95.4151Z" fill="black"/>
<path d="M109.524 4.07184C110.946 4.07184 111.586 4.8128 111.592 6.47826V6.70485H116.868V6.47826C116.868 4.62699 116.321 3.05897 115.257 1.9464C114.047 0.679748 112.195 0.0090332 109.901 0.0090332C106.711 0.0090332 104.092 1.36859 102.329 3.92455C100.928 5.96389 100.123 8.683 100.123 11.418C100.123 16.2059 102.695 18.9522 107.18 18.9522C111.631 18.9522 114.607 16.7248 115.781 12.5147L115.867 12.2155H110.565L110.508 12.3629C110.007 13.659 109.318 14.8554 107.679 14.8554C106.264 14.8554 105.576 13.8108 105.576 11.6627C105.572 8.47907 106.945 4.07184 109.524 4.07184Z" fill="black"/>
<path d="M4.7632 0.335205L4.33228 2.41306H28.8642L29.8915 0.335205H4.7632Z" fill="black"/>
<path d="M1.37674 16.5388L0.947998 18.6167H20.8486L21.8759 16.5388H1.37674Z" fill="black"/>
</g>
<defs>
<clipPath id="clip0">
<rect width="115.919" height="19" fill="white" transform="translate(0.947998)"/>
</clipPath>
</defs>
</svg>
