<svg width="116" height="19" viewBox="0 0 116 19" fill="none" xmlns="http://www.w3.org/2000/svg">
<g clip-path="url(#clip0)">
<path d="M23.5592 7.3188L24.5821 5.25H18.0203L16.301 13.6928H22.3361L23.3567 11.6241H19.1934L19.4436 10.4005H22.0357L23.0586 8.33393H19.8724L20.0791 7.3188H23.5592Z" fill="white"/>
<path d="M39.0983 0.330811H32.5301L23.4872 18.6123H28.9478L30.6149 14.912H35.3876L35.6945 18.6077H40.9178L39.0983 0.330811ZM32.3734 10.7541C33.4093 8.50628 34.2581 6.62103 34.9197 4.99636C34.9893 6.58251 35.1221 8.6513 35.2941 10.7541H32.3734Z" fill="white"/>
<path d="M56.161 0.330811H41.5902L40.7262 4.48426H45.4206L42.5609 18.6123H47.7798L50.6395 4.48426H55.2969L56.161 0.330811Z" fill="white"/>
<path d="M69.835 2.29765C68.5292 0.79534 66.5509 0 64.1286 0C57.6387 0 54.2414 5.74866 54.2414 11.427C54.2414 16.1334 56.9967 18.9432 61.6127 18.9432C64.8773 18.9432 67.5411 17.7127 69.317 15.3879C70.8209 13.4188 71.6479 10.7156 71.6479 7.7744C71.6479 5.55152 71.019 3.65721 69.835 2.29765ZM62.1372 14.8667C60.0458 14.8667 59.6083 13.054 59.6083 11.5177C59.6201 9.82755 59.9879 8.16071 60.6856 6.63464C61.2493 5.46768 62.2656 4.0764 63.8957 4.0764C65.5258 4.0764 66.3681 5.20936 66.3681 7.4753C66.3681 10.3304 65.219 14.8667 62.1372 14.8667Z" fill="white"/>
<path d="M93.4227 0.330663H85.9201L85.8635 0.471152C85.4918 1.36393 85.1087 2.2703 84.73 3.16987C83.5526 5.97055 82.4318 8.63756 81.6265 10.7789C81.7376 7.93965 81.8115 3.47124 81.7897 0.561788V0.335195H74.4598L70.7361 18.6121H75.474L76.6644 12.7548C77.0997 10.6519 77.5241 8.32939 77.8462 6.41015C77.7983 8.66248 77.7852 11.2185 77.7744 13.7155C77.7744 15.3175 77.7592 16.9014 77.7417 18.3742V18.6008H81.9791L82.0379 18.4603C83.9966 13.8288 85.7856 9.30151 86.9979 6.19035C86.5627 8.11639 86.064 10.4957 85.6571 12.5078L84.4232 18.6008H89.7027L91.2269 11.0984H87.4571L93.4227 0.319336V0.330663Z" fill="white"/>
<path d="M94.4671 0.330811L92.9395 7.8333H96.8806L90.7453 18.6123H96.2714L99.9932 0.330811H94.4671Z" fill="white"/>
<path d="M108.576 4.06727C109.998 4.06727 110.638 4.80823 110.644 6.47368V6.70028H115.919V6.47368C115.919 4.62242 115.373 3.0544 114.309 1.94183C113.099 0.672911 111.247 0.00219727 108.953 0.00219727C105.763 0.00219727 103.144 1.36176 101.381 3.91772C99.9795 5.95705 99.175 8.6875 99.175 11.4134C99.175 16.1991 101.747 18.9453 106.232 18.9453C110.683 18.9453 113.658 16.7202 114.833 12.5078L114.919 12.2087H109.617L109.56 12.356C109.059 13.6522 108.37 14.8486 106.731 14.8486C105.316 14.8486 104.628 13.8039 104.628 11.6559C104.624 8.4745 105.997 4.06727 108.576 4.06727Z" fill="white"/>
<path d="M2.35919 7.3188H4.47897L3.18839 13.6928H5.73255L7.02313 7.3188H9.1233L9.55425 5.25H2.79012L2.35919 7.3188Z" fill="white"/>
<path d="M14.6686 5.25L14.0571 8.24556H12.1659L12.7796 5.25H10.2311L8.51175 13.6928H11.0602L11.7414 10.3143H13.6327L12.9515 13.6928H15.5022L17.2215 5.25H14.6686Z" fill="white"/>
<path d="M3.8152 0.330811L3.38428 2.40867H27.9162L28.9435 0.330811H3.8152Z" fill="white"/>
<path d="M0.428743 16.5344L0 18.6123H19.9006L20.9279 16.5344H0.428743Z" fill="white"/>
<path d="M23.5592 7.32344L24.5821 5.25464H18.0203L16.301 13.6975H22.3361L23.3567 11.6287H19.1934L19.4436 10.4051H22.0357L23.0586 8.33857H19.8724L20.0791 7.32344H23.5592Z" fill="white"/>
<path d="M39.0983 0.335205H32.5301L23.4872 18.6167H28.9478L30.6149 14.9119H35.3876L35.6945 18.6076H40.9178L39.0983 0.335205ZM32.3734 10.7585C33.4093 8.51067 34.2581 6.62542 34.9197 5.00075C34.9893 6.5869 35.1221 8.65569 35.2941 10.7585H32.3734Z" fill="white"/>
<path d="M56.161 0.335205H41.5902L40.7262 4.48865H45.4206L42.5609 18.6167H47.7798L50.6395 4.48865H55.2969L56.161 0.335205Z" fill="white"/>
<path d="M69.835 2.30205C68.5292 0.799735 66.5509 0.00439453 64.1286 0.00439453C57.6387 0.00439453 54.2414 5.75305 54.2414 11.4314C54.2414 16.1378 56.9967 18.9475 61.6127 18.9475C64.8773 18.9475 67.5411 17.7171 69.317 15.3923C70.8209 13.4232 71.6479 10.72 71.6479 7.77879C71.6479 5.55592 71.019 3.6616 69.835 2.30205ZM62.1372 14.8712C60.0458 14.8712 59.6083 13.0584 59.6083 11.5221C59.6201 9.83196 59.9879 8.16511 60.6856 6.63903C61.2493 5.47208 62.2656 4.0808 63.8957 4.0808C65.5258 4.0808 66.3681 5.21376 66.3681 7.47969C66.3681 10.3325 65.219 14.8712 62.1372 14.8712Z" fill="white"/>
<path d="M93.4227 0.335304H85.9201L85.8635 0.475791C85.4918 1.36857 85.1087 2.27494 84.73 3.17452C83.5526 5.9752 82.4318 8.6422 81.6265 10.7835C81.7376 7.94203 81.8115 3.47588 81.7897 0.56643V0.339837H74.4598L70.7361 18.6168H75.474L76.6644 12.7594C77.0997 10.6566 77.5241 8.33177 77.8462 6.41479C77.7983 8.66486 77.7852 11.2231 77.7744 13.7201C77.7744 15.3221 77.7592 16.906 77.7417 18.3789V18.6055H81.9791L82.0379 18.465C83.9966 13.8334 85.7856 9.30608 86.9979 6.19499C86.5627 8.12103 86.064 10.4889 85.6571 12.5101L84.4232 18.6055H89.7027L91.2269 11.103H87.4571L93.4227 0.323975V0.335304Z" fill="white"/>
<path d="M94.4671 0.335205L92.9395 7.83769H96.8806L90.7453 18.6167H96.2714L99.9932 0.335205H94.4671Z" fill="white"/>
<path d="M108.576 4.07184C109.998 4.07184 110.638 4.8128 110.644 6.47826V6.70485H115.919V6.47826C115.919 4.62699 115.373 3.05897 114.309 1.9464C113.099 0.679748 111.247 0.0090332 108.953 0.0090332C105.763 0.0090332 103.144 1.36859 101.381 3.92455C99.9795 5.96389 99.175 8.683 99.175 11.418C99.175 16.2059 101.747 18.9522 106.232 18.9522C110.683 18.9522 113.658 16.7248 114.833 12.5147L114.919 12.2155H109.617L109.56 12.3629C109.059 13.659 108.37 14.8554 106.731 14.8554C105.316 14.8554 104.628 13.8108 104.628 11.6627C104.624 8.47907 105.997 4.07184 108.576 4.07184Z" fill="white"/>
<path d="M3.8152 0.335205L3.38428 2.41306H27.9162L28.9435 0.335205H3.8152Z" fill="white"/>
<path d="M0.428743 16.5388L0 18.6167H19.9006L20.9279 16.5388H0.428743Z" fill="white"/>
</g>
<defs>
<clipPath id="clip0">
<rect width="115.919" height="19" fill="white"/>
</clipPath>
</defs>
</svg>
