<svg width="20" height="16" viewBox="0 0 20 16" fill="none" xmlns="http://www.w3.org/2000/svg">
<path d="M19.4158 1.82347C18.8952 2.58008 18.2453 3.25423 17.5008 3.79747C17.5129 3.96317 17.5129 4.12887 17.5129 4.29381C17.5129 9.34194 13.6708 15.158 6.64866 15.158C4.48551 15.158 2.47519 14.5315 0.784912 13.4435C1.0921 13.4791 1.38793 13.4912 1.70722 13.4912C3.49207 13.4912 5.13544 12.8882 6.44816 11.8599C4.76924 11.8244 3.36269 10.725 2.8777 9.2118C3.11452 9.24736 3.35059 9.27081 3.59876 9.27081C3.9415 9.27081 4.28425 9.22315 4.60354 9.14068C2.85425 8.78582 1.54153 7.24914 1.54153 5.39317V5.3455C2.04997 5.62923 2.64088 5.80628 3.26736 5.83049C2.23912 5.145 1.56498 3.97452 1.56498 2.65045C1.56498 1.94074 1.75413 1.29081 2.08553 0.723354C3.96496 3.0401 6.79091 4.55409 9.95885 4.71903C9.89983 4.4353 9.86427 4.13946 9.86427 3.84438C9.86427 1.74024 11.5667 0.0257568 13.6829 0.0257568C14.7823 0.0257568 15.7757 0.486534 16.4725 1.2318C17.3358 1.0661 18.1628 0.746809 18.896 0.309487C18.6122 1.19624 18.0092 1.94075 17.217 2.41363C17.9858 2.33116 18.7303 2.11779 19.4158 1.82271V1.82347Z" fill="white"/>
</svg>
